<svg xmlns="http://www.w3.org/2000/svg" viewBox="0 0 93.5 90.8"><path fill="#c5bfd9" d="M50.3 62.2s-2 2.2-2.7 3.7c-1.6 3 4.1 15 9.7 21.1 4.2 4.6 13 2.6 13.3 2 .7-1.2-.8-5.7-11.6-4-1.2.3-6.5-18.6-6.7-16-.2 4 18.6-14.8 17.9-20.6-1.4-10.7-19-1.2-15.6-2.9 5.4-2.7-.9-5.6 8.2-7.7 4.6-1-1.9-15.7-1.5-16 2.9-3.8.5-9.8.8-12 .4-2.3 3.3-4.5 2.1-7-2-3.2-3.5.5-6 .1-.6-.1-3.2-2-7.6-2-11.2.2-10.9 4.6-13.4 3.8-1.6-.6-3-.2-2.5 3.8.4 3.8 0 8.8-1.2 9.4-6.4 3.2-6.4 11.8-5.8 17.7.1 1.8-4-24.7-12.5-24.5C12.5 11 6.7.7 1 7c-1.5 1.8 9 6.3 14.4 6.5 3.5.2 11.9 19.3 11.5 25.2-.5 8.3 1.2 20 4 23.1.4.5-1.3 26-1 26.9.5 1.2 12 2 8.9-.4-8-6.3-5.2-23.8-2.5-24.3 6.1-1 14-1.9 14-1.9z"/><path fill="#f90" d="M61 11.5c-.5-.3-1.8-.9-2.7.1-.5.6-1.5 2.7.3 3.7 1.4.8 3.3.6 3.7-.8.6-1.6-.8-2.6-1.4-3zm-13.7.1c-1.1.9-2 3.8.5 5.3 2.1 1.2 5.2 1 5.8-.9 1-3.7-4.7-6.4-6.3-4.4z"/><path fill="#fefefe" d="M50.1 13.6c-.6.5-.8 1-.4 1.5s1.5.7 1.6 0c.3-1-.7-1.9-1.2-1.5z"/><path fill="#019833" d="M51.3 14.3c0-.1-.9-.9-1-.6-.2.3.7.8-.2.8-1 0-.7.3-.3.5 1.3.3 1.5 0 1.5-.7z"/><path fill="#fefefe" d="M60 13c-.6.5-.8.9-.4 1.5.4.4 1.5.6 1.6-.1.3-1-.6-1.8-1.2-1.4z"/><path fill="#019833" d="M60.3 13.2c-.2.3.4.8-.3.7-1 0-.4.5 0 .6 1 .5 1 .3 1.2-.6-.1-.3-.7-.9-.9-.7z"/><g fill="none" stroke="#333" stroke-width=".5"><path d="M29.4 30.7c-1.4 1-3.9 28.7 1.2 31 4.5 2 19.5-.2 19.8.9 2.2-3 14.4-9.6 14.4-9.6"/><path d="M40.7 31.3S38 34.8 37 35c-2.4.4-8.2-2.8-8.7-5-1.2-5.3 3.2-13 5.8-13.4.3 0 1.4-7.4 1.4-7.4s-1.2-2.2-1-3.4c.4-2.1 1.5-3 2.8-.7.6 1 2-.2 2-.2S42.3.1 51.7 1c9.4.8 8.3 3.4 8.3 3.4s0-2.5.5-2.5 1.7-1.2 2.7.1c1 1.4 1.2 5-.1 5.6-1.6.8-1.1 3.3-1.1 3.3s1.2 8.4.8 9c-.4.8-2.6 3-3.4 3.1-.8 0 4.2 4.6 4.2 4.6 2.3 14-4.5 10.8-4.9 10.4-2.6-2.7-1.2-8.7-1.3-8.5-.2 1.2-1 4.6-.3 7.8.8 4 .6 7.9-2.8 8.5C52 46 64 43.2 66.9 44c.6.1 3.2 2.6 2.7 4.8-1.8 8.3-15.9 20.7-18.5 20.4-3.8-.4-5.8-.4-5.9-.2-.2.4 6-9.2 17-19.6"/><path d="M56 9.2C54.3 4.4 49.7 4 49.8 4m8.2 9.7s-1 2.2-.4 2.8c.5.7 3 2.8 2 4-1 1.3-4 2.1-5 1.5"/><path d="M57 19.8s-1-.6-.9-.3c0 .4.3 1 .5 1s.4-.7.4-.7zm1.6 3.3s-5 1.6-13-.8c-8.3-2.5-7.7-4.3-6.5-4.5"/><path d="M60.5 21.1c-.8-.2-1.8 1.2-3.3 1.4-1.5.2-4.3-.6-5.3-.8m7.4-11.5s-1.6 1.4-1.6 2.5c0 1.2-.2 2.8 1.1 3.4 1.3.6 3.6-.4 3.8-1.5.3-1.8-.2-2.9-1-4-1-1-2.8-.4-2.8-.4"/><path stroke-linecap="round" d="M50.4 11.3c-.8-.8-2 0-2.3.3h0c-3.5 2.4-.5 8 3.1 6.1 3-1.9 2.6-4.2 1.4-5.6a9.8 9.8 0 0 0-2.2-1.3"/><path d="M46.8 67.2c.3-.5 2.2.2 1.5 1.9-.4 1-1.5 1.2-1.3 2.2.2 1 10 14.2 10.5 15.2.4.7 3 0 2.4.8-.7 1 0 2.5.7 2.4 2-.3 2.4-1.3 1.6-2.3-1-1.1.9-1.8 1.2-1.4.7.8 3 1.5 2.1 2.8-.9 1.2.6 2.3 1.2 1.3.6-1-.8-5-.8-5l1.6 4s.7-1.9 0 .1 2.1 1.8 1.5.3c-.6-1.5-2.7-4.1-2.7-4.1.3 0 3 4.1 3 4.2 1.4 2 2 0 1.6-.4-.4-.4-.3-.3-1.2-.6-.8-.4-2.8-4.3-3-4.3-1.8-.4-5.8 2-6.9 1.6a399 399 0 0 1-9.7-17.8m-19.1.2-.8 1L31.6 84c-.8.1-.9 3-2.4 2.9-.8-.1-2.2 1.8-.2 1.7 2 0 2.9-2.8 2.9-2.8s1-2.6 0 .7c-.5 1.8-.4.1-1 1.8-.8 2.2 4.2.8 2.1.1-.9-.2-.2-3 .3-3.5-.3.1 1 3.2.8 4.1-.3 1.6 2.6.7 1.7 0-1.5-1-1-3-.8-3.6 0-.1 1.5 6 4 4 2.3-1.8-.5-1.1-1.7-1.7-1-.5-2-2-2-3-.1-.5-.5-1-.7-.3-.2.3-1.8-12.7-1.8-12.7-.4-1.4.3-1.3 1.2-2.1m4.7-39.2s3 1.2 5.8 1c2.8-.1 3.9 1.1 3.9-.3 0-1.6-1.2-.3-1.7-.2-.4.1-7.3-1.2-7.3-1.2v-.9s3.3 1.5 6.2 1.2c3-.4 2.7 1 3.3.2.7-1 .3-2.3-.8-1.3-.7.5-10-.8-10.3-1l3-.7s6.7 3 7.5 2.2c.9-.8 1.5-3.2-.8-1.8-.5 0-10.2-2.7-9.2-1 .6 1.1-.7 5-2.6 5.1-1.5 0-2.7-3.1-2.7-3.1m28.7 6.9s.6 0 0-3.5-1.3-3.2-3-2.4c-1 .5-1.3.7-1 1.4.2 1 2.1-1.2 2.8-1.4 0-.2-1.2 2-1.8 1.9-1.6-.2-1.4 2.6 0 1.2.3-.5 1.8-1.3 2.1-2.2-.2-.4-.3 2.7-2.2 2.9-2.2.1.5 2.2.6.6.4-.2.8-1 1.9-1.9.1.7-1 1.2-1.7 2.5-1 0 .5 2.6.8 0 0-.5 1-1.2 1.2-1.8M27 39.5s-2.4-21.8-11.7-26C11.1 15-1 6.2 1 7.3c6.2-2.5 10.3.4 14.6 4.5 8.4 3.5 12.1 22 12.1 22"/><path d="M29.7 49.1c3.8-5.7 2.7-8.1 6.7-8.1 7.6-.1-1 26.7-2 28-1.4 2.4-2.7-.8-3.7-.8-3 0 4-16.2 2.1-13.4m8.3-43.7c-1.6-.7-.7.6-1.6-.7-1-1.3-.3-2.4-.8-3.3-.5-.9-2.4-3-2.4-3"/></g></svg>